# xmcd
#
# Track frame offsets: 
#        150
#        16620
#        31815
#        55000
#        69592
#        83253
#        99577
#        117754
#        133006
#        154167
#
# Disc length: 2241 seconds
#
# Revision: 0
# Processed by: cddbd v1.5.2PL0 Copyright (c) Steve Scherf et al.
# Submitted via: ExactAudioCopy v0.99pb5
#
DISCID=6b08bf0a
DTITLE=The Charlie Daniels Band - Same Ol' Me
DYEAR=1995
DGENRE=Country
TTITLE0=Same Ol' Me
TTITLE1=Little Joe And Big Bill
TTITLE2=Take Me To The Wild Side
TTITLE3=My Baby Plays Me Just Like A Fiddle
TTITLE4=Gone For Real
TTITLE5=Sure Beats Pickin' Cotton
TTITLE6=Guilty
TTITLE7=Fais Do Do
TTITLE8=Bad Blood
TTITLE9=Hit The Ground Runnin'
EXTD=
EXTT0=
EXTT1=
EXTT2=
EXTT3=
EXTT4=
EXTT5=
EXTT6=
EXTT7=
EXTT8=
EXTT9=
PLAYORDER=
